<svg width="102" height="102" viewBox="0 0 102 102" fill="none" xmlns="http://www.w3.org/2000/svg">
<path d="M65.9007 33.2659H61.2114C61.0777 32.4969 60.8311 31.8156 60.4716 31.2221C60.1122 30.6203 59.665 30.1104 59.13 29.6925C58.5951 29.2745 57.9849 28.9611 57.2995 28.7521C56.6224 28.5348 55.891 28.4261 55.1053 28.4261C53.7093 28.4261 52.4722 28.7772 51.3939 29.4793C50.3157 30.1731 49.4714 31.1929 48.8612 32.5387C48.251 33.8761 47.9459 35.5102 47.9459 37.4411C47.9459 39.4054 48.251 41.0605 48.8612 42.4063C49.4798 43.7437 50.324 44.7551 51.3939 45.4405C52.4722 46.1176 53.7052 46.4561 55.0927 46.4561C55.8617 46.4561 56.5806 46.3558 57.2493 46.1552C57.9264 45.9462 58.5324 45.6411 59.0674 45.2399C59.6107 44.8387 60.0662 44.3455 60.434 43.7604C60.8102 43.1753 61.0693 42.5066 61.2114 41.7543L65.9007 41.7793C65.7252 42.9997 65.3448 44.1449 64.7597 45.2148C64.183 46.2848 63.4265 47.2293 62.4903 48.0485C61.5541 48.8593 60.4591 49.4945 59.2053 49.9543C57.9514 50.4057 56.5597 50.6313 55.03 50.6313C52.7732 50.6313 50.7587 50.1089 48.9866 49.0641C47.2145 48.0192 45.8186 46.5104 44.7988 44.5378C43.7791 42.5651 43.2692 40.1995 43.2692 37.4411C43.2692 34.6743 43.7832 32.3088 44.8114 30.3445C45.8395 28.3718 47.2396 26.863 49.0117 25.8182C50.7838 24.7733 52.7899 24.2509 55.03 24.2509C56.4594 24.2509 57.7885 24.4515 59.0172 24.8527C60.2459 25.2539 61.341 25.8432 62.3022 26.6206C63.2635 27.3896 64.0534 28.3342 64.6719 29.4543C65.2989 30.566 65.7084 31.8365 65.9007 33.2659Z" fill="white"/>
<path d="M61.3789 67.3462V41.6679H66.0306V52.5385H77.9294V41.6679H82.5936V67.3462H77.9294V56.4379H66.0306V67.3462H61.3789Z" fill="white"/>
<g clip-path="url(#clip0_272_501)">
<path d="M17.6538 48.0578C17.6538 47.2774 17.9638 46.5291 18.5156 45.9773C19.0674 45.4255 19.8158 45.1155 20.5961 45.1155H38.25C39.0303 45.1155 39.7787 45.4255 40.3305 45.9773C40.8823 46.5291 41.1923 47.2774 41.1923 48.0578V51.0001H43.193C43.6339 51.0005 44.069 51.0999 44.4662 51.2911C44.8635 51.4822 45.2127 51.7602 45.488 52.1044L48.3931 55.7333C48.8111 56.2554 49.0387 56.9044 49.0384 57.5732V61.7886C49.0384 62.5689 48.7284 63.3173 48.1766 63.8691C47.6249 64.4209 46.8765 64.7309 46.0961 64.7309H45.1153C45.1153 65.7713 44.702 66.7692 43.9663 67.5049C43.2306 68.2406 42.2327 68.6539 41.1923 68.6539C40.1518 68.6539 39.154 68.2406 38.4182 67.5049C37.6825 66.7692 37.2692 65.7713 37.2692 64.7309H27.4615C27.4626 65.2538 27.3592 65.7716 27.1573 66.254C26.9554 66.7364 26.6591 67.1735 26.2858 67.5397C25.9126 67.9059 25.4699 68.1938 24.9837 68.3865C24.4976 68.5791 23.9778 68.6726 23.455 68.6615C22.9322 68.6504 22.4169 68.5349 21.9394 68.3218C21.4619 68.1086 21.0318 67.8022 20.6745 67.4204C20.3171 67.0387 20.0397 66.5893 19.8584 66.0988C19.6772 65.6083 19.5959 65.0865 19.6193 64.5641C19.0446 64.3619 18.5469 63.9863 18.1949 63.4891C17.8428 62.9919 17.6538 62.3977 17.6538 61.7886V48.0578ZM20.192 62.683C20.5467 62.1024 21.0463 61.624 21.6418 61.295C22.2373 60.9659 22.9082 60.7974 23.5885 60.8061C24.2688 60.8148 24.9352 61.0004 25.522 61.3446C26.1089 61.6888 26.5961 62.1798 26.9358 62.7693H37.7949C38.1399 62.1736 38.635 61.6785 39.2307 61.3335V48.0578C39.2307 47.7977 39.1274 47.5482 38.9435 47.3643C38.7595 47.1803 38.5101 47.077 38.25 47.077H20.5961C20.336 47.077 20.0865 47.1803 19.9026 47.3643C19.7187 47.5482 19.6153 47.7977 19.6153 48.0578V61.7886C19.6152 61.9773 19.6695 62.1621 19.7718 62.3208C19.8741 62.4795 20.02 62.6052 20.192 62.683ZM41.1923 60.8078C41.8809 60.8078 42.5574 60.9891 43.1538 61.3334C43.7501 61.6777 44.2453 62.173 44.5897 62.7693H46.0961C46.3562 62.7693 46.6057 62.666 46.7896 62.4821C46.9736 62.2981 47.0769 62.0487 47.0769 61.7886V57.5712C47.0765 57.3487 47.0004 57.1329 46.8611 56.9592L43.958 53.3304C43.8663 53.2155 43.7499 53.1228 43.6175 53.0589C43.4851 52.9951 43.34 52.9618 43.193 52.9616H41.1923V60.8078ZM23.5384 62.7693C23.0182 62.7693 22.5193 62.976 22.1514 63.3438C21.7835 63.7117 21.5769 64.2106 21.5769 64.7309C21.5769 65.2511 21.7835 65.75 22.1514 66.1179C22.5193 66.4857 23.0182 66.6924 23.5384 66.6924C24.0587 66.6924 24.5576 66.4857 24.9254 66.1179C25.2933 65.75 25.5 65.2511 25.5 64.7309C25.5 64.2106 25.2933 63.7117 24.9254 63.3438C24.5576 62.976 24.0587 62.7693 23.5384 62.7693ZM41.1923 62.7693C40.672 62.7693 40.1731 62.976 39.8053 63.3438C39.4374 63.7117 39.2307 64.2106 39.2307 64.7309C39.2307 65.2511 39.4374 65.75 39.8053 66.1179C40.1731 66.4857 40.672 66.6924 41.1923 66.6924C41.7125 66.6924 42.2114 66.4857 42.5793 66.1179C42.9471 65.75 43.1538 65.2511 43.1538 64.7309C43.1538 64.2106 42.9471 63.7117 42.5793 63.3438C42.2114 62.976 41.7125 62.7693 41.1923 62.7693Z" fill="white"/>
</g>
<circle cx="51" cy="51" r="50.0192" stroke="white" stroke-width="1.96154"/>
<defs>
<clipPath id="clip0_272_501">
<rect width="31.3846" height="31.3846" fill="white" transform="translate(17.6538 41.1924)"/>
</clipPath>
</defs>
</svg>
