<svg width="600" height="600" viewBox="0 0 600 600" fill="none" xmlns="http://www.w3.org/2000/svg">
<path d="M395.916 312.84L396.252 333.756H568.428V312.84H395.916Z" fill="#EBEBEB"/>
<path d="M403.416 328.404L426.216 543.096C426.441 545.221 427.445 547.188 429.033 548.617C430.622 550.046 432.683 550.836 434.82 550.836H546L556.344 328.404H403.416Z" fill="#EBEBEB"/>
<path d="M567.449 549.581C571.882 528.991 558.784 508.706 538.194 504.273C517.603 499.84 497.318 512.938 492.885 533.528C488.452 554.118 501.55 574.404 522.14 578.837C542.731 583.27 563.016 570.172 567.449 549.581Z" fill="#E0E0E0"/>
<path d="M563.628 333.948C563.628 334.116 526.32 334.26 480.324 334.26C434.328 334.26 397.008 334.116 397.008 333.948C397.008 333.78 434.304 333.636 480.324 333.636C526.344 333.636 563.628 333.768 563.628 333.948Z" fill="#E0E0E0"/>
<path d="M568.428 312.744C568.428 312.912 529.968 313.056 482.544 313.056C435.12 313.056 396.648 312.912 396.648 312.744C396.648 312.576 435.048 312.432 482.544 312.432C530.04 312.432 568.428 312.576 568.428 312.744Z" fill="#E0E0E0"/>
<path d="M555.887 546.809C558.779 532.606 549.61 518.748 535.408 515.856C521.205 512.964 507.347 522.133 504.455 536.336C501.563 550.538 510.732 564.396 524.934 567.288C539.137 570.181 552.995 561.012 555.887 546.809Z" fill="#EBEBEB"/>
<path d="M485.688 405.528C485.688 405.528 495.012 408.252 493.224 418.824C491.436 429.396 485.688 430.944 485.688 430.944L498.708 436.248L511.728 433.644L516.924 428.988C516.924 428.988 509.124 424.476 508.848 415.704C508.572 406.932 512.34 406.104 513.924 404.688C515.508 403.272 505.008 401.088 505.008 401.088L495.828 400.128L485.688 405.528Z" fill="#F5F5F5"/>
<path d="M484.248 406.056C486.192 399.168 493.848 395.328 500.484 395.256C507.12 395.184 514.656 398.952 516.168 405.096C514.37 404.49 512.407 404.607 510.694 405.422C508.981 406.237 507.652 407.687 506.988 409.464C506.671 408.611 506.129 407.86 505.418 407.291C504.708 406.722 503.857 406.357 502.955 406.233C502.054 406.11 501.136 406.234 500.299 406.592C499.462 406.949 498.738 407.527 498.204 408.264C496.318 406.626 494.007 405.554 491.538 405.171C489.068 404.789 486.541 405.113 484.248 406.104" fill="#E0E0E0"/>
<path d="M503.34 388.8C503.34 388.896 502.788 389.136 502.14 389.832C501.286 390.751 500.715 391.897 500.496 393.132C500.295 394.394 500.263 395.677 500.4 396.948C500.484 397.489 500.484 398.039 500.4 398.58C500.129 398.092 499.965 397.552 499.92 396.996C499.649 395.684 499.625 394.333 499.848 393.012C500.082 391.652 500.777 390.415 501.816 389.508C502.644 388.8 503.328 388.728 503.34 388.8Z" fill="#E0E0E0"/>
<path d="M497.736 421.476C497.32 419.526 497.32 417.51 497.736 415.56C498.152 417.51 498.152 419.526 497.736 421.476V421.476Z" fill="#E0E0E0"/>
<path d="M503.496 420.924C503.08 419.16 503.08 417.324 503.496 415.56C503.912 417.324 503.912 419.16 503.496 420.924V420.924Z" fill="#E0E0E0"/>
<path d="M484.944 429.456C484.944 429.456 487.344 441.06 501.684 440.592C516.024 440.124 517.716 428.664 517.716 428.664C517.716 428.664 516.048 431.976 510.768 428.664C510.768 428.664 505.176 435.54 498.996 428.196C498.996 428.196 492.528 433.956 484.944 429.456Z" fill="#E0E0E0"/>
<path d="M360 273.144C361.754 269.913 364.089 267.032 366.888 264.648L344.88 252C343.679 251.418 342.622 250.578 341.784 249.54C341.384 249.009 341.167 248.363 341.167 247.698C341.167 247.033 341.384 246.387 341.784 245.856C342.274 245.461 342.846 245.178 343.458 245.029C344.069 244.879 344.707 244.867 345.324 244.992C349.616 245.287 353.843 246.196 357.876 247.692C356.124 244.956 354.372 242.208 352.608 239.472C351.876 238.332 351.132 236.844 351.876 235.704C352.62 234.564 354.276 234.636 355.644 235.02C358.445 235.867 360.984 237.413 363.022 239.513C365.061 241.612 366.531 244.195 367.296 247.02C367.059 240.92 367.702 234.817 369.204 228.9C369.624 227.22 370.272 225.372 371.856 224.664C372.679 224.381 373.572 224.371 374.402 224.634C375.232 224.898 375.955 225.422 376.464 226.128C377.446 227.558 378.063 229.205 378.264 230.928C380.081 241.349 379.121 252.064 375.48 261.996C379.872 262.308 384.216 264.696 387.972 267.24C401.929 276.684 413.822 288.867 422.928 303.048C422.928 303.048 441.168 333.828 418.2 351.132C410.856 356.664 402.888 355.932 393.696 356.004C384.504 356.076 374.772 358.092 365.904 355.668C358.824 353.724 351.3 351.468 346.596 345.828C340.476 338.508 340.956 327.828 342.744 318.432C345.798 302.441 351.639 287.112 360 273.144V273.144Z" fill="#E0E0E0"/>
<path d="M190.932 329.64L190.62 349.092H30.576V329.64H190.932Z" fill="#EBEBEB"/>
<path d="M183.96 344.112L162.744 543.684C162.534 545.661 161.6 547.489 160.122 548.819C158.645 550.148 156.728 550.884 154.74 550.884H51.3841L41.7841 344.124L183.96 344.112Z" fill="#EBEBEB"/>
<path d="M66.156 577.668C85.7334 577.668 101.604 561.797 101.604 542.22C101.604 522.643 85.7334 506.772 66.156 506.772C46.5786 506.772 30.708 522.643 30.708 542.22C30.708 561.797 46.5786 577.668 66.156 577.668Z" fill="#E0E0E0"/>
<path d="M35.04 349.26C35.04 349.092 69.708 348.948 112.476 348.948C155.244 348.948 189.912 349.092 189.912 349.26C189.912 349.428 155.244 349.572 112.476 349.572C69.708 349.572 35.04 349.44 35.04 349.26Z" fill="#E0E0E0"/>
<path d="M71.8329 565.952C84.9331 562.802 92.9994 549.629 89.8495 536.528C86.6996 523.428 73.5263 515.362 60.4261 518.512C47.326 521.662 39.2597 534.835 42.4096 547.935C45.5595 561.035 58.7328 569.102 71.8329 565.952Z" fill="#EBEBEB"/>
<path d="M70.968 319.632L83.244 303.264H143.256L159.348 319.632H70.968Z" fill="#EBEBEB"/>
<path d="M90.984 452.4V402.12L97.956 393.336V388.188H118.548V393.948L125.364 400.764V452.4H90.984Z" fill="#E0E0E0"/>
<path d="M110.868 412.848H93.684V437.484H110.868V412.848Z" fill="white"/>
<path d="M114.528 452.4C114.495 452.202 114.495 451.999 114.528 451.8C114.528 451.332 114.528 450.756 114.528 450.072C114.528 448.476 114.528 446.316 114.432 443.7C114.372 438.336 114.336 430.908 114.336 422.712C114.336 414.816 114.336 407.652 114.42 402.312V402.252L117.456 396.192C117.792 395.532 118.08 394.992 118.308 394.56C118.394 394.361 118.507 394.176 118.644 394.008C118.599 394.217 118.526 394.419 118.428 394.608L117.6 396.24C116.88 397.776 115.92 399.84 114.744 402.384V402.288C114.744 407.652 114.744 414.816 114.828 422.688C114.828 430.884 114.828 438.288 114.732 443.676C114.732 446.292 114.66 448.476 114.636 450.048C114.636 450.732 114.636 451.308 114.576 451.776C114.596 451.986 114.58 452.197 114.528 452.4V452.4Z" fill="#F5F5F5"/>
<path d="M114.24 402.288C110.308 402.597 106.363 402.701 102.42 402.6C98.4733 402.701 94.5239 402.597 90.588 402.288C94.5235 401.972 98.4733 401.868 102.42 401.976C106.363 401.868 110.308 401.972 114.24 402.288V402.288Z" fill="#F5F5F5"/>
<path d="M118.548 393.132C115.025 393.448 111.487 393.553 107.952 393.444C104.413 393.552 100.871 393.448 97.344 393.132C100.871 392.823 104.413 392.719 107.952 392.82C111.487 392.719 115.025 392.823 118.548 393.132V393.132Z" fill="#F5F5F5"/>
<path d="M24.552 332.472L32.16 314.772L188.772 315.624L197.112 332.472H24.552Z" fill="#EBEBEB"/>
<path d="M29.088 332.472C29.088 332.304 66.708 332.16 113.088 332.16C159.468 332.16 197.088 332.304 197.088 332.472C197.088 332.64 159.48 332.784 113.088 332.784C66.696 332.784 29.088 332.652 29.088 332.472Z" fill="#E0E0E0"/>
<path d="M188.772 315.6C188.772 315.78 153.72 315.72 110.496 315.492C67.272 315.264 32.22 314.916 32.22 314.748C32.22 314.58 67.26 314.628 110.508 314.868C153.756 315.108 188.772 315.456 188.772 315.6Z" fill="#E0E0E0"/>
<path d="M479.292 164.76H420.912V180.204H479.292V164.76Z" fill="#EBEBEB"/>
<path d="M454.608 196.476C454.608 196.476 454.608 196.368 454.608 196.188V195.396C454.608 194.676 454.608 193.656 454.608 192.36C454.608 189.696 454.608 185.856 454.5 181.032L454.68 181.212L396.312 181.32L396.6 181.032V188.856C396.6 191.432 396.6 193.964 396.6 196.452L396.312 196.164L437.916 196.296L450.204 196.368H453.516H454.392H454.692H454.428H453.6H450.336L438.12 196.452L396.312 196.584H396V188.88C396 187.584 396 186.288 396 184.98V181.056C396.6 180.456 396.168 180.888 396.312 180.756L454.68 180.876H454.8V181.056C454.8 185.928 454.716 189.804 454.692 192.492C454.692 193.776 454.692 194.772 454.692 195.492C454.692 195.804 454.692 196.056 454.692 196.248C454.673 196.327 454.645 196.404 454.608 196.476Z" fill="#E0E0E0"/>
<path d="M140.412 37.0801H82.032V52.5241H140.412V37.0801Z" fill="#EBEBEB"/>
<path d="M115.728 68.7962C115.719 68.7004 115.719 68.604 115.728 68.5082V67.7162C115.728 66.9962 115.728 65.9762 115.728 64.6802C115.728 62.0162 115.668 58.1762 115.632 53.3522L115.812 53.5322L57.432 53.6522C57.564 53.5082 57.132 53.9402 57.72 53.3522V68.7962L57.432 68.5082L99.036 68.6402L111.312 68.7242H114.636H115.5H115.812H115.536H114.708H111.444L99.24 68.8082L57.432 68.9402H57.132V53.3762L57.432 53.0762L115.812 53.1962H115.992V53.3762C115.992 58.2482 115.92 62.1242 115.896 64.8122C115.896 66.0962 115.896 67.0922 115.896 67.8122C115.896 68.1242 115.896 68.3762 115.896 68.5682C115.845 68.6481 115.789 68.7243 115.728 68.7962V68.7962Z" fill="#E0E0E0"/>
<path d="M531.696 68.82C531.691 68.7281 531.691 68.636 531.696 68.544V67.752C531.696 67.02 531.696 66.012 531.696 64.716C531.696 62.052 531.696 58.212 531.6 53.376L531.78 53.556L473.4 53.676L473.7 53.376V61.2C473.7 63.784 473.7 66.316 473.7 68.796L473.412 68.508L515.016 68.64L527.292 68.724H530.616H531.492H531.792C531.792 68.724 531.708 68.724 531.528 68.724H530.688H527.436L515.22 68.808L473.412 68.94H473.124V68.64C473.124 66.156 473.124 63.624 473.124 61.044V53.388C473.724 52.8 473.292 53.232 473.424 53.1L531.804 53.208H531.984V53.388C531.984 58.272 531.912 62.136 531.888 64.836C531.888 66.12 531.888 67.116 531.888 67.836V68.592C531.708 68.748 531.708 68.832 531.696 68.82Z" fill="#E0E0E0"/>
<path d="M539.616 53.376C539.607 53.2803 539.607 53.1838 539.616 53.088C539.616 52.86 539.616 52.596 539.616 52.272C539.616 51.504 539.616 50.472 539.616 49.176C539.616 46.464 539.544 42.636 539.496 37.932L539.712 38.148L504.636 38.232C504.372 38.496 504.996 37.872 504.924 37.932V45.876C504.924 48.468 504.924 50.964 504.924 53.364L504.648 53.088L529.74 53.22L537.048 53.292H539.016H539.724C539.512 53.3092 539.3 53.3092 539.088 53.292H537.168L529.968 53.376L504.684 53.508H504.396V53.22C504.396 50.82 504.396 48.324 504.396 45.732V37.944L504.696 37.644L539.772 37.728H539.988V37.944C539.988 42.744 539.892 46.572 539.868 49.308C539.868 50.592 539.868 51.612 539.868 52.356C539.868 53.1 539.628 53.4 539.616 53.376Z" fill="#E0E0E0"/>
<path d="M309.924 445.2C309.913 445.108 309.913 445.016 309.924 444.924V444.132C309.924 443.4 309.924 442.392 309.924 441.084C309.924 438.42 309.864 434.592 309.828 429.756L310.008 429.936L251.628 430.056C251.76 429.924 251.328 430.344 251.916 429.756V445.2L251.616 444.912L293.232 445.044L305.508 445.128H308.832H309.6H309.912H309.636H308.808H305.544L293.328 445.212L251.52 445.344H251.232V429.828L251.532 429.528L309.912 429.648H310.092V429.828C310.092 434.712 310.008 438.576 309.984 441.264C309.984 442.548 309.984 443.544 309.984 444.264V445.032C309.967 445.089 309.947 445.145 309.924 445.2Z" fill="#E0E0E0"/>
<path d="M317.832 429.804C317.832 429.804 317.832 429.696 317.832 429.504V428.688C317.832 427.932 317.832 426.9 317.772 425.592C317.772 422.88 317.772 419.064 317.652 414.36L317.868 414.576L282.792 414.66L283.092 414.36V422.292C283.092 424.872 283.092 427.38 283.092 429.78L282.804 429.492L307.896 429.636L315.204 429.708H317.184H317.88C317.668 429.725 317.456 429.725 317.244 429.708H315.336L308.136 429.78L282.852 429.924H282.576V422.148C282.576 420.852 282.576 419.544 282.576 418.212V414.216L282.876 413.916L317.952 414H318V414.216C318 419.016 317.916 422.844 317.892 425.58C317.892 426.864 317.892 427.884 317.832 428.628C317.871 429.019 317.871 429.413 317.832 429.804V429.804Z" fill="#E0E0E0"/>
<path d="M100.296 198.18C100.287 198.084 100.287 197.988 100.296 197.892C100.296 197.688 100.296 197.424 100.296 197.1C100.296 196.38 100.296 195.36 100.296 194.064C100.296 191.4 100.236 187.56 100.2 182.736L100.38 182.916L42 183.024L42.288 182.736V198.156L42 197.856L83.52 198L95.796 198.084H99.12H99.984H100.296H100.02H99.192H95.928L83.724 198.168L41.916 198.3H41.616V182.76L41.916 182.46L100.296 182.58H100.476V182.76C100.476 187.632 100.404 191.508 100.38 194.196C100.38 195.48 100.38 196.476 100.38 197.196C100.38 197.508 100.38 197.76 100.38 197.952C100.357 198.03 100.329 198.106 100.296 198.18V198.18Z" fill="#E0E0E0"/>
<path d="M370.404 88.8C370.399 88.7081 370.399 88.6159 370.404 88.524V87.732C370.404 87 370.404 85.992 370.404 84.684C370.404 82.02 370.344 78.192 370.296 73.356L370.476 73.536L312 73.68L312.3 73.38V81.204C312.3 83.788 312.3 86.32 312.3 88.8L312.012 88.512L353.616 88.644L365.904 88.728H369.216H370.092H370.392C370.392 88.728 370.308 88.728 370.128 88.728H369.3H366.036L353.82 88.812L312 89.112H311.712V81.228C311.712 79.944 311.712 78.636 311.712 77.328V73.404L312.012 73.104L370.392 73.224H370.584V73.404C370.584 78.288 370.5 82.152 370.476 84.84C370.476 86.124 370.476 87.132 370.476 87.84V88.608C370.416 88.8 370.416 88.8 370.404 88.8Z" fill="#E0E0E0"/>
<path d="M586.104 579.816C586.104 579.984 457.992 580.128 300.012 580.128C142.032 580.128 13.896 579.984 13.896 579.816C13.896 579.648 141.972 579.504 300.012 579.504C458.052 579.504 586.104 579.6 586.104 579.816Z" fill="#263238"/>
<path d="M461.304 300.564C459.605 297.444 457.348 294.661 454.644 292.356L475.872 280.128C477.034 279.561 478.055 278.741 478.86 277.728C479.261 277.214 479.479 276.58 479.479 275.928C479.479 275.276 479.261 274.642 478.86 274.128C478.385 273.748 477.833 273.476 477.243 273.331C476.652 273.186 476.037 273.171 475.44 273.288C471.292 273.611 467.211 274.525 463.32 276L468.408 268.056C469.116 266.952 469.836 265.512 469.128 264.456C468.42 263.4 466.728 263.424 465.528 263.796C462.826 264.612 460.375 266.101 458.404 268.122C456.434 270.143 455.008 272.63 454.26 275.352C454.485 269.455 453.867 263.555 452.424 257.832C452.016 256.212 451.38 254.424 449.856 253.74C449.06 253.468 448.198 253.458 447.396 253.713C446.595 253.968 445.896 254.474 445.404 255.156C444.439 256.54 443.841 258.146 443.664 259.824C441.905 269.886 442.832 280.235 446.352 289.824C442.104 290.124 437.952 292.44 434.268 294.9C420.775 304.028 409.281 315.807 400.488 329.52C400.488 329.52 382.848 359.28 405.048 376.008C412.152 381.348 420.552 384.924 429.432 384.96C438.312 384.996 447.036 382.728 455.604 380.388C462.456 378.516 469.716 376.32 474.276 370.872C480.192 363.804 479.724 353.448 477.996 344.388C475.041 328.916 469.391 314.082 461.304 300.564V300.564Z" fill="#263238"/>
<path d="M321.984 313.824L322.308 334.74H494.496V313.824H321.984Z" fill="#0065FF"/>
<path d="M327.72 329.088L350.52 543.78C350.745 545.905 351.749 547.871 353.337 549.3C354.926 550.729 356.987 551.52 359.124 551.52H470.4L480.756 329.088H327.72Z" fill="#0065FF"/>
<path d="M493.479 550.63C497.966 530.051 484.921 509.732 464.343 505.245C443.764 500.758 423.445 513.803 418.958 534.381C414.471 554.96 427.516 575.279 448.095 579.766C468.673 584.253 488.992 571.208 493.479 550.63Z" fill="#263238"/>
<path d="M526.956 154.224L474.18 320.472L492.264 314.976L538.656 174.588L526.956 154.224Z" fill="#0065FF"/>
<path d="M526.032 212.796L534.396 222.108L515.016 276.564L503.868 279.864L526.032 212.796Z" fill="#0065FF"/>
<path d="M456.228 564.768C467.965 564.768 477.48 555.253 477.48 543.516C477.48 531.779 467.965 522.264 456.228 522.264C444.491 522.264 434.976 531.779 434.976 543.516C434.976 555.253 444.491 564.768 456.228 564.768Z" fill="#455A64"/>
<path d="M488.484 334.8C488.484 334.98 451.284 335.112 405.396 335.112C359.508 335.112 322.308 334.98 322.308 334.8C322.308 334.62 359.508 334.488 405.396 334.488C451.284 334.488 488.484 334.572 488.484 334.8Z" fill="#263238"/>
<path d="M493.284 313.824C493.284 313.992 454.884 314.136 407.64 314.136C360.396 314.136 321.984 313.992 321.984 313.824C321.984 313.656 360.324 313.512 407.64 313.512C454.956 313.512 493.284 313.644 493.284 313.824Z" fill="#263238"/>
<path d="M495.408 305.58C495.24 305.52 504.696 276.456 516.54 240.648C528.384 204.84 538.14 175.848 538.26 175.92C538.38 175.992 528.96 205.032 517.128 240.852C505.296 276.672 495.6 305.628 495.408 305.58Z" fill="#263238"/>
<g opacity="0.3">
<path opacity="0.3" d="M480.972 334.8C459.288 336.24 436.932 339.9 415.248 341.328C386.808 343.212 357.336 344.928 330.708 334.8H480.972Z" fill="black"/>
</g>
<path d="M282.804 520.992C284.243 521.416 285.581 522.128 286.736 523.085C287.891 524.042 288.84 525.225 289.524 526.56C290.886 529.235 291.617 532.186 291.66 535.188C291.912 540.972 289.584 547.188 286.86 552.3C281.424 548.868 279.168 541.764 278.256 538.092C276.816 532.272 277.74 520.896 282.84 520.992" fill="#455A64"/>
<path d="M293.856 560.796C293.274 559.223 293.118 557.524 293.405 555.872C293.691 554.22 294.41 552.673 295.488 551.388C296.587 550.125 297.926 549.093 299.428 548.353C300.93 547.614 302.565 547.181 304.236 547.08C305 546.951 305.783 546.991 306.53 547.198C307.276 547.406 307.968 547.775 308.556 548.28C309.024 548.832 309.336 549.499 309.458 550.213C309.581 550.926 309.51 551.659 309.252 552.336C308.725 553.69 307.847 554.878 306.708 555.78C302.976 559.032 298.764 561.492 293.856 560.82" fill="#455A64"/>
<path d="M290.46 579.18C290.416 578.781 290.416 578.379 290.46 577.98C290.46 577.14 290.46 576.048 290.544 574.74C290.52 571.145 291.083 567.57 292.212 564.156C293.392 560.732 295.463 557.683 298.212 555.324C299.055 554.629 299.977 554.037 300.96 553.56C301.225 553.429 301.498 553.313 301.776 553.212C301.956 553.14 302.064 553.104 302.064 553.128C300.784 553.801 299.577 554.605 298.464 555.528C295.814 557.904 293.811 560.914 292.644 564.276C291.536 567.652 290.937 571.175 290.868 574.728C290.784 576.096 290.724 577.2 290.652 577.968C290.626 578.377 290.562 578.783 290.46 579.18Z" fill="#263238"/>
<path d="M282.876 529.716C282.937 529.879 282.981 530.048 283.008 530.22C283.092 530.592 283.2 531.072 283.32 531.672C283.596 532.932 283.956 534.756 284.388 537.024C285.252 541.548 286.356 547.824 287.412 554.784C288.468 561.744 289.296 568.056 289.812 572.628C290.076 574.92 290.28 576.78 290.4 578.052C290.4 578.664 290.496 579.156 290.532 579.54C290.551 579.711 290.551 579.884 290.532 580.056C290.483 579.887 290.451 579.715 290.436 579.54C290.376 579.168 290.304 578.676 290.22 578.076C290.052 576.744 289.8 574.908 289.512 572.664C288.9 568.104 288.036 561.792 286.98 554.844C285.924 547.896 284.856 541.644 284.076 537.072C283.692 534.852 283.368 533.028 283.14 531.696C283.044 531.096 282.96 530.616 282.9 530.232C282.865 530.062 282.857 529.888 282.876 529.716V529.716Z" fill="#263238"/>
<path d="M286.128 565.56C285.01 562.206 283.109 559.168 280.581 556.697C278.054 554.226 274.974 552.394 271.596 551.352C269.88 550.836 267.72 550.656 266.592 552.06C265.464 553.464 266.088 555.54 266.988 557.1C268.934 560.306 271.785 562.866 275.182 564.457C278.579 566.048 282.371 566.598 286.08 566.04" fill="#455A64"/>
<path d="M273.216 556.608C273.587 556.675 273.952 556.771 274.308 556.896C274.716 557.017 275.117 557.161 275.508 557.328C275.988 557.532 276.54 557.712 277.116 558.012C277.757 558.312 278.381 558.644 278.988 559.008C279.648 559.38 280.32 559.848 281.016 560.34C282.509 561.453 283.87 562.733 285.072 564.156C286.253 565.597 287.268 567.167 288.096 568.836C288.445 569.567 288.753 570.316 289.02 571.08C289.26 571.744 289.464 572.421 289.632 573.108C289.782 573.672 289.899 574.245 289.98 574.824C290.069 575.255 290.125 575.692 290.148 576.132C290.19 576.503 290.19 576.877 290.148 577.248C290.052 577.248 289.968 575.652 289.296 573.192C289.117 572.516 288.9 571.851 288.648 571.2C288.372 570.451 288.055 569.718 287.7 569.004C286.871 567.37 285.865 565.833 284.7 564.42C283.518 563.027 282.19 561.763 280.74 560.652C280.056 560.16 279.408 559.68 278.76 559.308C278.112 558.936 277.5 558.576 276.936 558.276C274.8 557.136 273.192 556.704 273.216 556.608Z" fill="#263238"/>
<path d="M201.312 530.892L199.62 562.092C199.62 562.092 230.736 574.284 230.988 580.092L170.4 578.928L171.06 530.244L201.312 530.892Z" fill="#455A64"/>
<path d="M180.936 559.092C180.35 559.261 179.847 559.639 179.521 560.154C179.196 560.67 179.072 561.287 179.172 561.888C179.323 562.477 179.692 562.987 180.204 563.314C180.717 563.642 181.334 563.762 181.932 563.652C182.551 563.473 183.082 563.071 183.423 562.524C183.764 561.977 183.891 561.323 183.78 560.688C183.562 560.088 183.121 559.595 182.549 559.311C181.977 559.027 181.318 558.975 180.708 559.164" fill="#E0E0E0"/>
<g opacity="0.6">
<path opacity="0.6" d="M170.4 578.928L170.664 574.032L228.636 576.936C228.636 576.936 231.312 578.136 231.036 580.056L170.4 578.928Z" fill="white"/>
</g>
<path d="M200.604 561.78C200.604 562.068 199.104 562.176 197.64 563.1C196.176 564.024 195.36 565.26 195.096 565.128C194.832 564.996 195.3 563.316 197.1 562.224C198.9 561.132 200.676 561.504 200.604 561.78Z" fill="#263238"/>
<path d="M206.904 564.516C206.976 564.804 205.704 565.284 204.648 566.52C203.592 567.756 203.316 569.076 203.016 569.052C202.716 569.028 202.56 567.36 203.868 565.848C205.176 564.336 206.904 564.24 206.904 564.516Z" fill="#263238"/>
<path d="M210.372 572.196C210.108 572.196 209.724 570.768 210.516 569.16C211.308 567.552 212.7 566.928 212.82 567.18C212.94 567.432 212.064 568.284 211.44 569.58C210.816 570.876 210.672 572.172 210.372 572.196Z" fill="#263238"/>
<path d="M200.208 554.628C200.076 554.892 198.72 554.46 197.052 554.544C195.384 554.628 194.064 555.132 193.92 554.868C193.776 554.604 195.036 553.584 197.016 553.512C198.996 553.44 200.4 554.4 200.208 554.628Z" fill="#263238"/>
<path d="M180.996 531.3L179.796 562.5C179.796 562.5 211.116 574.188 211.452 579.972L150.876 579.84L150.732 531.156L180.996 531.3Z" fill="#455A64"/>
<path d="M161.088 559.836C160.496 559.997 159.987 560.38 159.668 560.904C159.349 561.429 159.243 562.056 159.372 562.656C159.531 563.241 159.905 563.744 160.419 564.065C160.933 564.385 161.549 564.499 162.144 564.384C162.764 564.197 163.292 563.787 163.627 563.233C163.961 562.678 164.079 562.02 163.956 561.384C163.731 560.785 163.283 560.297 162.706 560.022C162.128 559.747 161.467 559.706 160.86 559.908" fill="#E0E0E0"/>
<g opacity="0.6">
<path opacity="0.6" d="M150.888 579.84L151.068 574.932L209.076 576.9C209.076 576.9 211.776 578.1 211.476 579.972L150.888 579.84Z" fill="white"/>
</g>
<path d="M180.792 562.188C180.792 562.488 179.304 562.62 177.852 563.568C176.4 564.516 175.608 565.752 175.344 565.644C175.08 565.536 175.512 563.808 177.3 562.692C179.088 561.576 180.864 561.924 180.792 562.188Z" fill="#263238"/>
<path d="M187.2 564.84C187.272 565.116 186 565.62 184.98 566.868C183.96 568.116 183.684 569.436 183.384 569.424C183.084 569.412 182.904 567.744 184.188 566.208C185.472 564.672 187.2 564.552 187.2 564.84Z" fill="#263238"/>
<path d="M190.728 572.4C190.464 572.4 190.056 570.984 190.824 569.364C191.592 567.744 192.972 567.108 193.092 567.348C193.212 567.588 192.36 568.464 191.748 569.748C191.136 571.032 191.028 572.4 190.728 572.4Z" fill="#263238"/>
<path d="M180.276 555.048C180.156 555.324 178.8 554.916 177.12 555.048C175.44 555.18 174.144 555.684 173.988 555.42C173.832 555.156 175.092 554.124 177.06 554.016C179.028 553.908 180.42 554.82 180.276 555.048Z" fill="#263238"/>
<path d="M126.468 308.46L128.52 333.036L143.1 428.244C143.1 428.244 142.86 475.044 142.524 501.444C142.236 524.4 149.124 563.748 149.124 563.748L187.524 560.556L190.272 427.2L191.928 344.004L203.64 305.22L126.468 308.46Z" fill="#263238"/>
<path d="M231.6 432.528L227.892 313.728C227.84 312.098 227.163 310.549 226.002 309.404C224.841 308.258 223.283 307.602 221.652 307.572L180.456 306.792C179.609 306.779 178.767 306.936 177.982 307.253C177.196 307.57 176.481 308.041 175.879 308.638C175.278 309.235 174.802 309.946 174.479 310.729C174.156 311.513 173.994 312.353 174 313.2L176.52 539.388C176.537 540.893 177.088 542.343 178.075 543.48C179.062 544.616 180.42 545.365 181.908 545.592L204.864 547.56L229.992 445.2C231.202 441.089 231.745 436.811 231.6 432.528V432.528Z" fill="#263238"/>
<path d="M191.904 344.976C191.943 345.158 191.963 345.343 191.964 345.528C191.964 345.924 192.024 346.476 192.072 347.16C192.144 348.636 192.252 350.76 192.396 353.436C192.696 358.896 192.96 366.792 193.224 376.548C193.68 396.06 193.752 423.048 192.84 452.82C191.928 482.592 190.524 509.544 189.456 529.044C188.892 538.752 188.436 546.624 188.124 552.12C187.956 554.808 187.824 556.92 187.728 558.396C187.728 559.08 187.632 559.596 187.608 560.016C187.599 560.206 187.575 560.394 187.536 560.58C187.52 560.392 187.52 560.204 187.536 560.016C187.536 559.62 187.536 559.068 187.536 558.384C187.596 556.908 187.68 554.784 187.8 552.108C188.064 546.612 188.436 538.728 188.904 529.008C189.84 509.52 191.208 482.58 192.072 452.808C192.936 423.036 192.996 396.072 192.66 376.56C192.468 366.804 192.288 358.908 192.072 353.448C191.988 350.748 191.928 348.648 191.88 347.172C191.88 346.476 191.88 345.972 191.88 345.528C191.875 345.344 191.883 345.159 191.904 344.976V344.976Z" fill="#455A64"/>
<path d="M179.472 110.508L173.268 167.892C172.068 177.66 170.196 192.144 185.748 193.428C199.332 193.524 204.36 181.248 205.524 172.128C206.076 167.796 206.544 164.184 206.628 163.728C206.628 163.728 221.436 164.232 224.364 149.892C225.768 142.956 227.52 128.436 228.936 115.272C229.675 108.458 227.818 101.616 223.737 96.1095C219.656 90.6029 213.65 86.8363 206.916 85.5604L205.536 85.2964C190.404 83.3284 181.032 95.3284 179.472 110.508Z" fill="#FFCCB3"/>
<path d="M206.664 163.752C200.023 162.466 193.89 159.305 188.988 154.644C188.988 154.644 191.556 166.02 206.16 167.46L206.664 163.752Z" fill="#FF9A6A"/>
<path d="M204.24 119.34C203.916 119.34 202.596 118.14 200.316 117.24C198.036 116.34 196.092 116.328 195.912 116.04C195.732 115.752 196.212 115.752 197.112 115.752C198.347 115.782 199.567 116.034 200.712 116.496C201.834 116.916 202.864 117.548 203.748 118.356C204.288 118.956 204.396 119.316 204.24 119.34Z" fill="#263238"/>
<path d="M202.608 124.404C202.509 124.899 202.226 125.339 201.817 125.635C201.408 125.931 200.901 126.061 200.4 126C200.149 125.972 199.906 125.894 199.686 125.771C199.466 125.648 199.272 125.482 199.117 125.283C198.961 125.084 198.847 124.856 198.781 124.612C198.715 124.369 198.698 124.114 198.732 123.864C198.823 123.357 199.109 122.905 199.528 122.604C199.947 122.304 200.466 122.179 200.976 122.256C201.477 122.325 201.931 122.589 202.237 122.992C202.543 123.395 202.676 123.903 202.608 124.404V124.404Z" fill="#263238"/>
<path d="M207.984 135.996C209.215 135.835 210.461 135.835 211.692 135.996C212.268 135.996 212.82 135.996 212.988 135.672C213.167 135.102 213.167 134.49 212.988 133.92C212.712 132.456 212.424 130.92 212.136 129.312C210.936 122.748 210.264 117.396 210.528 117.312C210.792 117.228 211.944 122.556 213.096 129.108C213.36 130.728 213.624 132.264 213.864 133.74C214.094 134.487 214.047 135.292 213.732 136.008C213.616 136.193 213.457 136.349 213.269 136.461C213.082 136.574 212.87 136.64 212.652 136.656C212.326 136.701 211.994 136.701 211.668 136.656C210.416 136.603 209.177 136.381 207.984 135.996V135.996Z" fill="#263238"/>
<path d="M203.88 109.2C203.58 109.704 201.684 109.08 199.344 108.924C197.004 108.768 195.036 109.068 194.82 108.516C194.724 108.252 195.144 107.796 196.02 107.412C197.13 106.951 198.333 106.758 199.532 106.848C200.73 106.937 201.891 107.307 202.92 107.928C203.676 108.396 204 108.9 203.88 109.2Z" fill="#263238"/>
<path d="M226.428 116.328C226.116 116.736 224.28 116.028 221.988 115.692C219.696 115.356 217.764 115.428 217.572 114.936C217.488 114.708 217.92 114.36 218.772 114.096C219.899 113.797 221.077 113.74 222.228 113.928C223.396 114.093 224.517 114.502 225.516 115.128C226.236 115.656 226.56 116.124 226.428 116.328Z" fill="#263238"/>
<path d="M178.608 121.584C178.356 121.428 168.684 116.784 167.316 127.224C165.948 137.664 176.7 136.824 176.76 136.572C176.82 136.32 178.608 121.584 178.608 121.584Z" fill="#FFCCB3"/>
<path d="M174.084 132.204C174.084 132.204 173.892 132.312 173.568 132.408C173.11 132.532 172.622 132.481 172.2 132.264C171.156 131.712 170.46 129.864 170.652 127.956C170.742 127.059 171.033 126.194 171.504 125.424C171.646 125.114 171.861 124.843 172.131 124.634C172.4 124.425 172.716 124.284 173.052 124.224C173.268 124.197 173.486 124.245 173.67 124.361C173.854 124.477 173.992 124.654 174.06 124.86C174.156 125.172 174.06 125.364 174.06 125.388C174.06 125.412 174.312 125.244 174.276 124.8C174.25 124.535 174.136 124.286 173.952 124.092C173.691 123.841 173.343 123.699 172.98 123.696C172.542 123.726 172.119 123.867 171.752 124.107C171.384 124.346 171.084 124.676 170.88 125.064C170.316 125.912 169.966 126.884 169.86 127.896C169.656 129.996 170.472 132.108 171.924 132.696C172.188 132.824 172.477 132.89 172.77 132.89C173.063 132.89 173.352 132.824 173.616 132.696C174 132.456 174.12 132.228 174.084 132.204Z" fill="#FF9A6A"/>
<path d="M207.6 142.956C207.6 142.68 205.632 142.416 204 140.832C203.309 140.108 202.709 139.302 202.212 138.432C201.816 137.76 201.516 137.352 201.42 137.4C201.324 137.448 201.42 137.928 201.708 138.684C202.093 139.692 202.691 140.604 203.46 141.36C204.243 142.123 205.224 142.651 206.292 142.884C207.024 143.1 207.6 143.04 207.6 142.956Z" fill="#263238"/>
<path d="M225.528 121.2C225.264 121.404 223.5 121.032 221.088 121.464C218.676 121.896 216.996 122.844 216.708 122.736C216.42 122.628 216.828 122.364 217.56 121.92C218.641 121.319 219.819 120.912 221.04 120.72C222.23 120.495 223.451 120.495 224.64 120.72C225.372 120.924 225.6 121.2 225.528 121.2Z" fill="#263238"/>
<path d="M222.516 127.284C222.425 127.792 222.14 128.243 221.721 128.544C221.301 128.844 220.782 128.969 220.272 128.892C220.021 128.864 219.778 128.786 219.558 128.663C219.338 128.54 219.144 128.374 218.989 128.175C218.834 127.976 218.72 127.748 218.653 127.504C218.587 127.261 218.571 127.006 218.604 126.756C218.695 126.249 218.981 125.797 219.4 125.497C219.819 125.196 220.338 125.071 220.848 125.148C221.099 125.176 221.342 125.254 221.562 125.377C221.782 125.5 221.976 125.666 222.131 125.865C222.287 126.064 222.401 126.292 222.467 126.536C222.533 126.78 222.55 127.034 222.516 127.284V127.284Z" fill="#263238"/>
<path d="M250.08 104.556C249.97 103.955 249.636 103.419 249.144 103.056C248.056 102.401 246.814 102.045 245.544 102.024C242.396 101.591 239.386 100.455 236.736 98.7002C237.775 98.3271 238.75 97.7969 239.628 97.1282C240.554 96.453 241.277 95.5362 241.717 94.478C242.157 93.4198 242.298 92.2611 242.124 91.1282C242.101 90.917 242.029 90.714 241.915 90.535C241.8 90.356 241.646 90.2058 241.464 90.0962C240.84 89.8202 240.204 90.3842 239.7 90.8402C239.036 91.5583 238.19 92.0826 237.252 92.3574C236.314 92.6321 235.318 92.6469 234.372 92.4002C233.072 92.1568 231.843 91.6281 230.772 90.8522L230.664 90.6962L229.332 88.9922C226.032 84.8642 223.116 81.9242 219.972 80.2202C215.364 77.7122 207.36 75.9842 202.164 76.7162C196.968 77.4482 191.964 81.0242 190.668 86.1122C188.112 83.3882 183.864 82.9202 180.264 83.9042H180.18C176.184 84.8282 173.532 88.6202 171.948 92.4002L171.696 93.0362C170.16 94.9521 168.19 96.4742 165.948 97.4762C165.552 97.6442 165.096 97.8602 165.012 98.2802C164.993 98.4947 165.032 98.7104 165.125 98.9046C165.218 99.0988 165.361 99.2645 165.54 99.3842C166.393 100.146 167.406 100.708 168.504 101.028C168.048 101.923 167.518 102.778 166.92 103.584C166.404 104.268 165.78 105.084 166.068 105.888C166.21 106.188 166.44 106.439 166.727 106.606C167.014 106.773 167.345 106.849 167.676 106.824C168.339 106.757 168.981 106.553 169.56 106.224L167.916 109.14C169.284 109.541 170.727 109.615 172.128 109.356C172.396 113.083 172.869 116.793 173.544 120.468C175.152 120.648 176.712 120.468 177.6 121.452C178.8 122.82 179.136 125.16 181.476 124.56C182.676 124.248 183.972 121.992 184.488 120.876C187.899 113.448 189.671 105.374 189.684 97.2002C191.476 95.6858 193.541 94.5289 195.768 93.7922L195.576 93.9362C199.788 93.0002 204.54 92.1482 208.152 94.4882C210.972 96.3122 212.364 99.6122 214.308 102.336C215.993 104.824 218.178 106.932 220.723 108.527C223.269 110.122 226.119 111.169 229.092 111.6C229.152 116.04 228.036 121.536 227.784 125.64L232.32 119.496C232.644 119.06 232.944 118.608 233.22 118.14L233.316 117.996C233.751 117.241 234.224 116.508 234.732 115.8V115.8C235.16 116.25 235.736 116.53 236.355 116.588C236.973 116.645 237.591 116.477 238.095 116.114C238.599 115.751 238.954 115.217 239.094 114.613C239.235 114.008 239.152 113.372 238.86 112.824C238.565 112.31 238.197 111.841 237.768 111.432C238.21 111.975 238.785 112.393 239.437 112.648C240.089 112.902 240.795 112.984 241.488 112.884C242.179 112.759 242.81 112.409 243.281 111.888C243.752 111.367 244.037 110.704 244.092 110.004C244.105 109.519 243.986 109.039 243.747 108.616C243.508 108.193 243.159 107.844 242.736 107.604C244.518 107.957 246.365 107.769 248.04 107.064C249.168 106.716 250.284 105.876 250.08 104.556Z" fill="#263238"/>
<path d="M195 88.3081C194.439 88.6735 193.902 89.0743 193.392 89.5081C192.088 90.764 191.129 92.3344 190.608 94.0681C190.219 95.2379 189.95 96.444 189.804 97.6681C189.648 99.0121 189.588 100.452 189.516 101.964C189.471 103.572 189.323 105.175 189.072 106.764C188.929 107.602 188.725 108.428 188.46 109.236C188.241 110.091 187.807 110.876 187.2 111.516C186.916 111.77 186.571 111.945 186.198 112.025C185.826 112.105 185.439 112.087 185.076 111.972C184.385 111.77 183.779 111.349 183.348 110.772C182.689 109.601 182.358 108.275 182.388 106.932L182.688 107.004C182.121 108.046 181.406 109 180.564 109.836C179.754 110.604 178.68 111.033 177.564 111.036C177.045 111.021 176.54 110.868 176.1 110.592C175.693 110.321 175.379 109.931 175.2 109.476C175.031 109.058 174.977 108.602 175.044 108.156C175.108 107.739 175.321 107.36 175.644 107.088L175.776 107.232C174.787 108.127 173.616 108.798 172.344 109.2C172.014 109.308 171.677 109.397 171.336 109.464C171.216 109.476 171.096 109.476 170.976 109.464C171.088 109.415 171.204 109.379 171.324 109.356C171.552 109.356 171.888 109.2 172.308 109.044C173.528 108.599 174.646 107.914 175.596 107.028L175.728 107.184C175.453 107.458 175.271 107.812 175.209 108.196C175.146 108.579 175.206 108.973 175.38 109.32C175.546 109.727 175.83 110.074 176.196 110.316C176.597 110.561 177.058 110.69 177.528 110.688C178.577 110.665 179.576 110.235 180.312 109.488C181.134 108.697 181.837 107.792 182.4 106.8L182.664 106.356V106.872C182.651 108.149 182.974 109.407 183.6 110.52C183.978 111.056 184.522 111.452 185.148 111.648C185.456 111.745 185.783 111.76 186.099 111.693C186.414 111.625 186.707 111.478 186.948 111.264C187.525 110.653 187.938 109.906 188.148 109.092C188.415 108.309 188.619 107.507 188.76 106.692C189.008 105.127 189.16 103.548 189.216 101.964C189.3 100.452 189.36 99.0001 189.54 97.6441C189.7 96.3907 189.985 95.1565 190.392 93.9601C190.943 92.2021 191.954 90.6235 193.32 89.3881C193.817 88.9387 194.385 88.5739 195 88.3081V88.3081Z" fill="#455A64"/>
<path d="M238.224 107.628L238.092 107.712L237.696 107.928C237.487 108.057 237.266 108.166 237.036 108.252C236.736 108.401 236.422 108.521 236.1 108.612C234.055 109.275 231.877 109.416 229.764 109.02C226.614 108.441 223.697 106.966 221.364 104.772C218.565 102.048 216.352 98.7816 214.86 95.1721C214.008 93.2881 213.348 91.3921 212.604 89.6161C211.921 87.8959 211 86.2801 209.868 84.8161C208.849 83.4997 207.517 82.46 205.992 81.7921C205.293 81.5167 204.557 81.3468 203.808 81.2881C203.12 81.2477 202.43 81.3001 201.756 81.4441C200.584 81.6953 199.479 82.1945 198.516 82.9081C197.792 83.4514 197.157 84.103 196.632 84.8401C196.219 85.4943 195.884 86.1952 195.636 86.9281C195.636 86.9281 195.636 86.9281 195.636 86.7841C195.636 86.6401 195.708 86.5201 195.756 86.3401C195.942 85.7891 196.192 85.2615 196.5 84.7681C197.028 84.0111 197.676 83.3462 198.42 82.8001C199.395 82.0478 200.52 81.5156 201.72 81.2401C202.421 81.0874 203.139 81.0269 203.856 81.0601C204.631 81.1112 205.392 81.2854 206.112 81.5761C207.693 82.2441 209.077 83.3058 210.132 84.6601C211.29 86.1176 212.231 87.7342 212.928 89.4601C213.696 91.2481 214.344 93.1441 215.184 95.0041C216.669 98.5508 218.852 101.762 221.604 104.448C223.878 106.62 226.726 108.094 229.812 108.696C231.889 109.106 234.034 109.007 236.064 108.408C236.797 108.187 237.518 107.926 238.224 107.628V107.628Z" fill="#455A64"/>
<path d="M240.276 101.412C240.098 101.531 239.909 101.631 239.712 101.712C239.184 101.953 238.638 102.154 238.08 102.312C237.256 102.556 236.413 102.729 235.56 102.828C234.507 102.931 233.446 102.931 232.392 102.828C231.336 102.735 230.292 102.542 229.272 102.252C228.448 102.009 227.646 101.7 226.872 101.328C226.352 101.077 225.85 100.788 225.372 100.464C225.036 100.224 224.856 100.092 224.868 100.068C224.88 100.044 225.66 100.524 226.98 101.112C227.759 101.448 228.561 101.729 229.38 101.952C230.383 102.216 231.407 102.397 232.44 102.492C233.474 102.577 234.514 102.577 235.548 102.492C236.39 102.411 237.224 102.266 238.044 102.06C239.424 101.724 240.252 101.352 240.276 101.412Z" fill="#455A64"/>
<path d="M107.544 213.528C107.544 213.528 124.452 161.652 144.396 162.756L173.916 161.88C173.916 161.88 179.568 176.952 190.404 177.984C201.24 179.016 205.524 172.128 205.524 172.128C205.524 172.128 236.4 184.32 240.192 197.232C243.984 210.144 241.104 244.584 241.104 244.584L219.948 243.48L221.256 271.08L231.756 324.564L125.268 326.664L128.268 243.864L131.52 220.152L107.544 213.528Z" fill="#455A64"/>
<path d="M138 184.452C138.004 184.994 137.94 185.534 137.808 186.06C137.58 187.26 137.316 188.688 137.004 190.404C136.32 194.064 135.384 199.128 134.448 204.732C133.512 210.336 132.744 215.436 132.204 219.132C131.94 220.848 131.724 222.312 131.544 223.5C131.493 224.043 131.38 224.579 131.208 225.096C131.142 224.554 131.142 224.006 131.208 223.464C131.28 222.42 131.424 220.92 131.628 219.06C132.036 215.352 132.72 210.24 133.656 204.66C134.592 199.08 135.624 193.992 136.44 190.344C136.848 188.52 137.208 187.056 137.472 186.048C137.584 185.497 137.761 184.961 138 184.452V184.452Z" fill="#263238"/>
<path d="M219.948 243.48C219.948 243.48 218.748 265.464 227.472 271.68C231.528 274.56 249.816 274.5 249.816 274.5L241.104 244.584L219.948 243.48Z" fill="#FFCCB3"/>
<g opacity="0.3">
<path opacity="0.3" d="M220.656 259.2C224.42 245.675 227.357 231.934 229.452 218.052C226.572 222.744 223.452 233.244 220.968 240.132C219.048 245.52 219.996 251.232 220.668 258.72" fill="black"/>
</g>
<path d="M231.756 212.592C231.224 214.174 230.595 215.721 229.872 217.224C228.672 220.056 227.016 223.98 225.348 228.384C223.68 232.788 222.3 236.784 221.34 239.736C220.886 241.343 220.329 242.918 219.672 244.452C219.686 244 219.763 243.552 219.9 243.12C220.092 242.28 220.404 241.068 220.836 239.58C221.676 236.604 222.972 232.536 224.64 228.12C226.308 223.704 228.048 219.792 229.44 217.008C230.112 215.616 230.64 214.5 231.084 213.732C231.252 213.322 231.478 212.938 231.756 212.592V212.592Z" fill="#263238"/>
<path d="M202.68 263.592C202.329 264.039 201.926 264.441 201.48 264.792C200.664 265.524 199.452 266.568 197.952 267.828C194.952 270.36 190.752 273.768 185.952 277.428C181.152 281.088 176.784 284.232 173.544 286.464C171.936 287.58 170.616 288.456 169.692 289.056C169.228 289.396 168.729 289.685 168.204 289.92C168.602 289.505 169.045 289.134 169.524 288.816L173.244 286.032C176.388 283.632 180.744 280.464 185.496 276.828C190.248 273.192 194.52 269.868 197.604 267.444L201.276 264.588C201.71 264.21 202.18 263.876 202.68 263.592Z" fill="#263238"/>
<path d="M300.456 180.216L284.94 162.864C284.298 162.142 283.466 161.614 282.54 161.34L268.488 157.512C267.715 157.305 266.904 157.282 266.121 157.444C265.337 157.607 264.603 157.951 263.976 158.448L250.392 169.248C249.549 169.923 248.94 170.847 248.652 171.888L236.22 217.608C236.044 218.255 235.998 218.93 236.084 219.595C236.17 220.26 236.386 220.901 236.72 221.482C237.055 222.063 237.501 222.573 238.033 222.981C238.565 223.389 239.172 223.687 239.82 223.86L282.624 235.5C283.27 235.676 283.945 235.722 284.609 235.636C285.273 235.55 285.913 235.334 286.493 234.999C287.073 234.664 287.582 234.218 287.988 233.686C288.395 233.154 288.693 232.547 288.864 231.9L301.656 184.896C301.861 184.078 301.858 183.221 301.649 182.404C301.439 181.587 301.029 180.835 300.456 180.216V180.216ZM293.052 185.976C292.684 186.305 292.255 186.558 291.789 186.72C291.324 186.883 290.83 186.953 290.338 186.925C289.845 186.897 289.363 186.772 288.919 186.558C288.474 186.344 288.077 186.044 287.748 185.676L277.884 174.648C277.556 174.281 277.303 173.853 277.141 173.388C276.978 172.924 276.909 172.431 276.936 171.94C276.964 171.448 277.089 170.967 277.303 170.524C277.517 170.08 277.816 169.684 278.184 169.356V169.356C278.925 168.695 279.898 168.354 280.89 168.408C281.881 168.462 282.811 168.906 283.476 169.644L293.34 180.684C293.671 181.052 293.927 181.481 294.091 181.947C294.256 182.414 294.327 182.908 294.301 183.402C294.274 183.896 294.15 184.38 293.936 184.826C293.721 185.271 293.421 185.671 293.052 186V185.976Z" fill="#455A64"/>
<path d="M283.252 156.532L269.97 152.918L268.698 157.596L281.979 161.21L283.252 156.532Z" fill="#455A64"/>
<path d="M285.64 153.354L269.163 148.871C268.466 148.682 267.747 149.093 267.558 149.79L266.537 153.542C266.347 154.239 266.759 154.957 267.456 155.147L283.933 159.63C284.63 159.82 285.349 159.408 285.538 158.711L286.559 154.96C286.749 154.263 286.337 153.544 285.64 153.354Z" fill="#263238"/>
<path d="M235.872 213.696C235.864 213.136 235.678 212.592 235.342 212.144C235.006 211.695 234.536 211.365 234 211.2C234.266 211.175 234.523 211.094 234.756 210.964C234.989 210.833 235.192 210.656 235.353 210.442C235.513 210.229 235.627 209.984 235.688 209.724C235.748 209.464 235.754 209.195 235.704 208.932C235.704 208.373 235.551 207.825 235.261 207.347C234.971 206.869 234.556 206.479 234.06 206.22C234.577 206.089 235.027 205.772 235.324 205.329C235.621 204.886 235.744 204.348 235.668 203.82C235.5 201.768 233.268 201.48 233.268 201.48C233.268 201.48 235.32 201.312 235.332 199.416C235.344 197.52 233.16 197.112 233.16 197.112L234.96 194.976L234.384 187.98C234.35 187.602 234.236 187.235 234.05 186.905C233.864 186.574 233.61 186.286 233.304 186.06L226.764 181.26L218.58 181.944L217.38 182.04L211.728 187.908C211.465 188.182 211.263 188.509 211.134 188.867C211.006 189.225 210.955 189.605 210.984 189.984L211.572 196.98L213.696 198.78C213.696 198.78 211.62 199.548 211.944 201.42C212.062 201.95 212.374 202.417 212.817 202.73C213.261 203.043 213.805 203.179 214.344 203.112C213.757 203.276 213.241 203.63 212.876 204.119C212.512 204.607 212.319 205.203 212.328 205.812C212.332 206.354 212.539 206.875 212.907 207.273C213.276 207.67 213.78 207.915 214.32 207.96C213.87 208.291 213.52 208.739 213.308 209.256C213.097 209.772 213.032 210.337 213.12 210.888C213.115 211.155 213.165 211.421 213.267 211.668C213.369 211.914 213.522 212.137 213.714 212.322C213.907 212.507 214.136 212.65 214.387 212.742C214.638 212.834 214.905 212.873 215.172 212.856C214.672 213.108 214.264 213.512 214.008 214.01C213.751 214.508 213.659 215.075 213.744 215.628C213.727 216.173 213.896 216.708 214.223 217.144C214.55 217.58 215.016 217.892 215.544 218.028L213.528 220.62L214.728 235.416C215.084 236.324 215.737 237.083 216.581 237.572C217.424 238.06 218.408 238.248 219.372 238.104C220.336 238.077 221.255 237.695 221.953 237.03C222.651 236.365 223.078 235.465 223.152 234.504C223.152 234.504 223.476 237.732 226.476 237.54H226.872C229.872 237.24 229.656 234 229.656 234C229.882 234.943 230.451 235.767 231.252 236.313C232.053 236.858 233.028 237.086 233.988 236.952C234.961 236.93 235.898 236.581 236.647 235.96C237.396 235.339 237.914 234.484 238.116 233.532L236.916 218.724L234.516 216.504C235.039 216.274 235.464 215.865 235.712 215.35C235.961 214.836 236.018 214.249 235.872 213.696Z" fill="#E0E0E0"/>
<path d="M226.272 176.075L216.956 176.851C216.533 176.886 216.219 177.257 216.255 177.68L216.553 181.267C216.588 181.69 216.96 182.004 217.382 181.969L226.698 181.193C227.121 181.158 227.435 180.787 227.4 180.364L227.101 176.777C227.066 176.354 226.695 176.04 226.272 176.075Z" fill="#263238"/>
<path d="M233.124 197.088C229.815 197.673 226.472 198.054 223.116 198.228C219.774 198.612 216.412 198.788 213.048 198.756C216.357 198.154 219.699 197.754 223.056 197.556C226.399 197.188 229.761 197.032 233.124 197.088V197.088Z" fill="#263238"/>
<path d="M234.768 194.952C230.938 195.589 227.076 196.018 223.2 196.236C219.343 196.663 215.465 196.88 211.584 196.884C215.43 196.248 219.308 195.819 223.2 195.6C227.042 195.178 230.903 194.962 234.768 194.952V194.952Z" fill="#263238"/>
<path d="M233.736 201.6C230.447 202.185 227.124 202.565 223.788 202.74C220.474 203.124 217.14 203.3 213.804 203.268C217.087 202.659 220.406 202.258 223.74 202.068C227.059 201.707 230.398 201.551 233.736 201.6Z" fill="#263238"/>
<path d="M234.108 206.064C230.823 206.649 227.504 207.029 224.172 207.204C220.854 207.588 217.516 207.761 214.176 207.72C217.462 207.143 220.78 206.763 224.112 206.58C227.43 206.204 230.769 206.032 234.108 206.064Z" fill="#263238"/>
<path d="M234.516 211.044C231.231 211.63 227.913 212.011 224.58 212.184C221.266 212.568 217.932 212.74 214.596 212.7C217.881 212.115 221.2 211.734 224.532 211.56C227.846 211.184 231.181 211.011 234.516 211.044V211.044Z" fill="#263238"/>
<path d="M234.936 216C231.651 216.584 228.332 216.965 225 217.14C221.682 217.517 218.343 217.689 215.004 217.656C218.292 217.051 221.614 216.65 224.952 216.456C228.267 216.092 231.602 215.94 234.936 216V216Z" fill="#263238"/>
<path d="M236.916 218.676C233.053 219.307 229.16 219.735 225.252 219.96C221.359 220.395 217.445 220.615 213.528 220.62C217.391 219.99 221.284 219.561 225.192 219.336C229.086 218.909 232.999 218.689 236.916 218.676Z" fill="#263238"/>
<path d="M262.452 195.816C262.494 195.171 262.329 194.529 261.982 193.983C261.635 193.437 261.123 193.016 260.52 192.78C260.827 192.772 261.129 192.701 261.406 192.57C261.684 192.439 261.932 192.252 262.133 192.021C262.335 191.79 262.487 191.52 262.579 191.227C262.671 190.934 262.701 190.625 262.668 190.32C262.706 189.679 262.571 189.039 262.277 188.467C261.984 187.895 261.543 187.412 261 187.068C261.613 186.96 262.162 186.627 262.542 186.134C262.922 185.641 263.103 185.024 263.052 184.404C263.052 182.004 260.436 181.512 260.436 181.512C260.436 181.512 262.836 181.512 262.98 179.316C263.124 177.12 260.676 176.484 260.676 176.484L262.92 174.18L262.824 166.092C262.819 165.656 262.721 165.227 262.537 164.831C262.353 164.436 262.087 164.085 261.756 163.8L254.628 157.692L245.172 157.8H243.816L236.832 164.076C236.509 164.369 236.25 164.726 236.075 165.125C235.899 165.525 235.809 165.956 235.812 166.392L235.908 174.48L238.212 176.724C238.212 176.724 235.812 177.444 235.968 179.616C236.062 180.23 236.378 180.788 236.855 181.184C237.333 181.58 237.94 181.786 238.56 181.764C237.871 181.906 237.249 182.271 236.789 182.802C236.329 183.334 236.057 184.003 236.016 184.704C235.979 185.327 236.174 185.94 236.565 186.426C236.955 186.912 237.512 187.235 238.128 187.332C237.589 187.681 237.156 188.171 236.874 188.748C236.593 189.326 236.475 189.969 236.532 190.608C236.509 190.913 236.549 191.22 236.649 191.509C236.75 191.797 236.908 192.063 237.115 192.288C237.322 192.513 237.573 192.693 237.853 192.817C238.132 192.941 238.434 193.006 238.74 193.008C238.143 193.259 237.64 193.693 237.304 194.247C236.967 194.801 236.815 195.447 236.868 196.092C236.812 196.714 236.967 197.337 237.306 197.861C237.645 198.385 238.15 198.781 238.74 198.984L236.22 201.804L236.412 218.916C236.749 219.985 237.438 220.909 238.365 221.539C239.293 222.168 240.406 222.466 241.524 222.384C242.638 222.434 243.731 222.067 244.59 221.355C245.449 220.643 246.011 219.637 246.168 218.532C246.168 218.532 246.276 222.264 249.768 222.288H250.224C253.692 222.18 253.716 218.436 253.716 218.436C253.896 219.538 254.48 220.534 255.354 221.228C256.228 221.923 257.33 222.267 258.444 222.192C259.565 222.247 260.672 221.921 261.585 221.267C262.497 220.614 263.162 219.671 263.472 218.592L263.268 201.48L260.676 198.72C261.253 198.503 261.741 198.099 262.062 197.573C262.384 197.047 262.521 196.429 262.452 195.816V195.816Z" fill="#E0E0E0"/>
<path d="M260.676 176.508C256.819 176.862 252.945 177.01 249.072 176.952C245.204 177.104 241.33 177.044 237.468 176.772C241.325 176.418 245.199 176.27 249.072 176.328C252.94 176.176 256.814 176.236 260.676 176.508V176.508Z" fill="#263238"/>
<path d="M262.8 174.192C262.8 174.372 256.8 174.576 249.396 174.66C241.992 174.744 235.992 174.66 235.992 174.504C235.992 174.348 241.992 174.12 249.384 174.036C256.776 173.952 262.728 174 262.8 174.192Z" fill="#263238"/>
<path d="M261 181.692C257.175 182.046 253.333 182.194 249.492 182.136C245.648 182.288 241.798 182.228 237.96 181.956C241.789 181.603 245.635 181.455 249.48 181.512C253.321 181.368 257.166 181.428 261 181.692V181.692Z" fill="#263238"/>
<path d="M261.06 186.912C257.235 187.266 253.393 187.414 249.552 187.356C245.708 187.501 241.858 187.441 238.02 187.176C241.849 186.816 245.695 186.667 249.54 186.732C253.38 186.58 257.226 186.64 261.06 186.912V186.912Z" fill="#263238"/>
<path d="M261.132 192.66C257.303 193.021 253.457 193.169 249.612 193.104C245.772 193.256 241.926 193.196 238.092 192.924C241.921 192.571 245.767 192.422 249.612 192.48C253.452 192.336 257.298 192.396 261.132 192.66Z" fill="#263238"/>
<path d="M261.192 198.42C257.367 198.774 253.525 198.922 249.684 198.864C245.844 199.009 241.998 198.949 238.164 198.684C241.989 198.323 245.831 198.175 249.672 198.24C253.512 198.088 257.358 198.149 261.192 198.42V198.42Z" fill="#263238"/>
<path d="M263.244 201.6C263.244 201.78 257.244 201.984 249.732 202.068C242.22 202.152 236.22 202.068 236.22 201.912C236.22 201.756 242.22 201.54 249.732 201.444C257.244 201.348 263.244 201.456 263.244 201.6Z" fill="#263238"/>
<path d="M254.344 151.788L243.941 151.908C243.351 151.914 242.878 152.398 242.885 152.988L242.929 156.768C242.936 157.357 243.419 157.83 244.009 157.823L254.412 157.703C255.002 157.697 255.475 157.213 255.468 156.623L255.424 152.843C255.418 152.254 254.934 151.781 254.344 151.788Z" fill="#455A64"/>
<path d="M244.896 157.764C244.576 156.844 244.449 155.868 244.524 154.896C244.403 153.934 244.485 152.957 244.764 152.028C245.101 152.94 245.232 153.916 245.148 154.884C245.267 155.851 245.181 156.833 244.896 157.764V157.764Z" fill="#263238"/>
<path d="M247.02 157.584C246.699 156.668 246.572 155.696 246.648 154.728C246.521 153.761 246.607 152.778 246.9 151.848C247.356 153.729 247.397 155.686 247.02 157.584V157.584Z" fill="#263238"/>
<path d="M249.168 157.668C248.848 156.748 248.721 155.772 248.796 154.8C248.675 153.838 248.757 152.861 249.036 151.932C249.373 152.844 249.504 153.819 249.42 154.788C249.539 155.755 249.453 156.736 249.168 157.668V157.668Z" fill="#263238"/>
<path d="M251.472 157.56C251.152 156.64 251.025 155.664 251.1 154.692C250.972 153.729 251.058 152.75 251.352 151.824C251.673 152.74 251.8 153.713 251.724 154.68C251.851 155.647 251.765 156.63 251.472 157.56V157.56Z" fill="#263238"/>
<path d="M253.608 157.5C253.288 156.58 253.161 155.604 253.236 154.632C253.108 153.669 253.194 152.69 253.488 151.764C253.811 152.68 253.938 153.653 253.86 154.62C253.986 155.587 253.9 156.57 253.608 157.5V157.5Z" fill="#263238"/>
<path d="M201.663 220.953L297.597 219.848C300.447 219.815 302.73 217.478 302.697 214.628L302.646 210.165C302.613 207.315 300.276 205.032 297.427 205.065L201.493 206.17C198.643 206.202 196.36 208.539 196.393 211.389L196.444 215.852C196.477 218.702 198.814 220.985 201.663 220.953Z" fill="#0065FF"/>
<path d="M294.18 218.304L282.984 318.156C282.827 319.519 282.185 320.779 281.177 321.709C280.168 322.638 278.859 323.175 277.488 323.22L220.548 325.044C219.103 325.091 217.693 324.586 216.606 323.632C215.519 322.679 214.834 321.347 214.692 319.908L204.66 218.736C204.324 215.4 206.94 212.496 209.592 212.472L287.772 211.956C291.888 211.932 294.564 214.908 294.18 218.304Z" fill="#0065FF"/>
<path d="M280.476 280.536C280.296 280.536 281.484 266.964 283.104 250.248C284.724 233.532 286.344 219.852 286.356 220.02C286.368 220.188 285.348 233.592 283.728 250.308C282.108 267.024 280.644 280.56 280.476 280.536Z" fill="#263238"/>
<path d="M295.56 219.876C295.56 220.056 275.16 220.416 249.96 220.692C224.76 220.968 204.36 221.052 204.36 220.884C204.36 220.716 224.76 220.344 249.96 220.068C275.16 219.792 295.56 219.708 295.56 219.876Z" fill="#263238"/>
<path d="M287.592 282.264C287.592 282.264 295.812 283.788 293.772 294.624C293.772 294.624 297.432 304.224 292.632 307.968C287.832 311.712 290.088 321.048 285.156 323.664C282.552 325.056 277.644 326.064 273.6 326.604C273.061 326.68 272.513 326.562 272.054 326.271C271.594 325.98 271.253 325.535 271.092 325.015C270.93 324.496 270.959 323.936 271.172 323.436C271.385 322.935 271.769 322.527 272.256 322.284C272.687 322.06 273.132 321.864 273.588 321.696L279.588 318.984L283.248 309.852L272.22 311.292C271.459 311.411 270.679 311.295 269.985 310.961C269.291 310.627 268.714 310.089 268.332 309.42C267.684 308.22 267.768 306.66 270.732 305.376C275.82 303.156 284.436 302.028 284.436 302.028L285.828 292.344C285.828 292.344 282.42 295.572 281.388 291.984C280.356 288.396 287.592 282.264 287.592 282.264Z" fill="#FFCCB3"/>
<path d="M289.488 287.388C289.499 287.979 289.354 288.563 289.068 289.08C288.535 290.379 287.715 291.54 286.668 292.476C286.079 293.002 285.395 293.409 284.652 293.676C284.334 293.798 283.995 293.854 283.655 293.842C283.315 293.83 282.98 293.749 282.672 293.604C282.248 293.419 281.909 293.08 281.724 292.656C281.604 292.356 281.64 292.176 281.724 292.164C281.808 292.152 281.952 292.86 282.924 293.196C283.453 293.379 284.03 293.357 284.544 293.136C285.209 292.844 285.818 292.438 286.344 291.936C287.644 290.611 288.707 289.073 289.488 287.388Z" fill="#FF9A6A"/>
<path d="M292.872 306.12C292.872 306.12 292.716 306.408 292.296 306.78C291.695 307.305 291.02 307.738 290.292 308.064C287.865 308.994 285.328 309.607 282.744 309.888C279.756 310.368 277.056 310.776 275.088 311.088C274.036 311.291 272.967 311.392 271.896 311.388C272.908 311.036 273.954 310.786 275.016 310.644C276.96 310.272 279.66 309.804 282.636 309.312C285.177 309.034 287.682 308.495 290.112 307.704C291.079 307.262 292.003 306.732 292.872 306.12V306.12Z" fill="#FF9A6A"/>
<path d="M283.416 159.66C280.949 159.34 278.512 158.814 276.132 158.088C273.703 157.556 271.323 156.821 269.016 155.892C271.479 156.221 273.911 156.751 276.288 157.476C278.72 158.007 281.104 158.737 283.416 159.66V159.66Z" fill="#263238"/>
<path d="M187.932 199.2C188.062 198.655 188.016 198.083 187.8 197.565C187.585 197.048 187.211 196.612 186.732 196.32C186.997 196.357 187.266 196.339 187.524 196.267C187.781 196.195 188.021 196.071 188.228 195.902C188.436 195.733 188.606 195.523 188.728 195.285C188.851 195.047 188.923 194.787 188.94 194.52C189.071 193.979 189.052 193.413 188.885 192.883C188.718 192.352 188.409 191.877 187.992 191.508C188.533 191.501 189.053 191.294 189.45 190.926C189.846 190.558 190.093 190.055 190.14 189.516C190.194 188.91 190.046 188.304 189.721 187.79C189.396 187.276 188.911 186.883 188.34 186.672C188.869 186.772 189.417 186.673 189.878 186.394C190.338 186.115 190.68 185.676 190.836 185.16C191.304 183.324 189.288 182.388 189.288 182.388L191.544 180.756L192.66 173.832C192.724 173.458 192.706 173.074 192.606 172.707C192.507 172.34 192.329 171.999 192.084 171.708L186.9 165.432L178.8 164.076L177.6 163.884L170.7 168.216C170.381 168.42 170.109 168.688 169.902 169.005C169.695 169.322 169.558 169.679 169.5 170.052L168.384 176.976L170.016 179.232C170.016 179.232 167.808 179.484 167.616 181.38C167.424 183.276 169.512 183.588 169.512 183.588C168.902 183.61 168.316 183.832 167.845 184.22C167.375 184.609 167.045 185.141 166.908 185.736C166.784 186.262 166.86 186.815 167.122 187.288C167.384 187.761 167.812 188.119 168.324 188.292C167.811 188.51 167.367 188.865 167.041 189.318C166.715 189.771 166.52 190.304 166.476 190.86C166.407 191.118 166.392 191.388 166.433 191.652C166.474 191.916 166.568 192.169 166.712 192.395C166.855 192.62 167.043 192.813 167.265 192.962C167.487 193.112 167.737 193.213 168 193.26C167.447 193.389 166.949 193.692 166.58 194.123C166.211 194.555 165.99 195.094 165.948 195.66C165.806 196.187 165.848 196.745 166.066 197.245C166.284 197.744 166.666 198.155 167.148 198.408L164.568 200.448L162.168 215.112C162.298 216.075 162.749 216.966 163.448 217.641C164.147 218.316 165.053 218.736 166.02 218.832C166.966 219.041 167.956 218.889 168.797 218.408C169.637 217.927 170.269 217.15 170.568 216.228C170.568 216.228 170.112 219.432 173.064 219.972H173.46C176.436 220.392 177.06 217.2 177.06 217.2C177.052 218.17 177.405 219.108 178.05 219.831C178.696 220.554 179.588 221.011 180.552 221.112C181.497 221.315 182.483 221.197 183.353 220.775C184.223 220.353 184.926 219.652 185.352 218.784L187.752 204.12L186 201.396C186.519 201.294 186.99 201.024 187.339 200.627C187.689 200.229 187.897 199.728 187.932 199.2Z" fill="#E0E0E0"/>
<path d="M187.691 160.309L178.462 158.82C178.043 158.752 177.649 159.037 177.582 159.455L177.008 163.009C176.94 163.428 177.225 163.822 177.644 163.89L186.872 165.38C187.291 165.447 187.685 165.163 187.753 164.744L188.327 161.19C188.394 160.771 188.109 160.377 187.691 160.309Z" fill="#263238"/>
<path d="M189.264 182.4C185.908 182.181 182.569 181.749 179.268 181.104C175.936 180.669 172.634 180.032 169.38 179.196C172.735 179.422 176.074 179.855 179.376 180.492C182.708 180.927 186.01 181.564 189.264 182.4V182.4Z" fill="#263238"/>
<path d="M191.376 180.696C187.503 180.39 183.649 179.873 179.832 179.148C175.984 178.632 172.167 177.911 168.396 176.988C172.268 177.302 176.122 177.818 179.94 178.536C183.788 179.052 187.605 179.774 191.376 180.696Z" fill="#263238"/>
<path d="M188.784 186.852C185.453 186.628 182.139 186.2 178.86 185.568C175.548 185.139 172.266 184.506 169.032 183.672C172.365 183.882 175.68 184.311 178.956 184.956C182.268 185.386 185.55 186.019 188.784 186.852V186.852Z" fill="#263238"/>
<path d="M188.052 191.316C184.723 191.105 181.412 190.677 178.14 190.032C174.828 189.604 171.546 188.971 168.312 188.136C171.643 188.36 174.957 188.789 178.236 189.42C181.544 189.847 184.823 190.481 188.052 191.316V191.316Z" fill="#263238"/>
<path d="M187.26 196.248C183.928 196.037 180.612 195.608 177.336 194.964C174.028 194.536 170.75 193.903 167.52 193.068C170.851 193.294 174.165 193.723 177.444 194.352C180.752 194.781 184.03 195.414 187.26 196.248V196.248Z" fill="#263238"/>
<path d="M186.468 201.18C183.135 200.971 179.82 200.542 176.544 199.896C173.236 199.469 169.957 198.836 166.728 198C170.056 198.218 173.366 198.647 176.64 199.284C179.952 199.712 183.234 200.346 186.468 201.18V201.18Z" fill="#263238"/>
<path d="M187.74 204.24C183.839 203.925 179.958 203.404 176.112 202.68C172.232 202.157 168.383 201.428 164.58 200.496C168.481 200.811 172.362 201.332 176.208 202.056C180.088 202.577 183.938 203.306 187.74 204.24V204.24Z" fill="#263238"/>
<path d="M168.996 182.4C168.996 182.4 163.2 184.428 162.996 187.104C162.792 189.78 157.104 206.88 157.104 206.88L131.52 220.068L108 213.6C108 213.6 96.312 236.76 94.68 243.708C93.408 249.096 93.288 265.308 100.272 267.468C109.872 270.456 123.996 263.244 131.784 256.752C143.088 247.332 165.96 225.084 169.14 218.196C171.203 213.609 172.951 208.886 174.372 204.06L168.996 182.4Z" fill="#FFCCB3"/>
<path d="M168.996 182.4C168.996 182.4 183.264 179.04 184.26 179.76C185.256 180.48 191.196 187.608 191.172 188.94C191.148 190.272 189.384 193.104 189.384 193.104C189.384 193.104 191.376 199.356 186.48 201.504C186.48 201.504 190.08 204.144 188.796 207.3C188.178 208.56 187.269 209.654 186.144 210.492L185.28 206.484L177.864 204.084L174 205.2L168 195.6L168.996 182.4Z" fill="#FFCCB3"/>
<path d="M186 201.6C185.906 200.888 185.652 200.207 185.256 199.608C184.512 198.48 182.736 197.844 180.648 197.376C176.496 196.296 173.172 195.24 173.232 194.976C173.292 194.712 176.7 195.444 180.852 196.512C181.863 196.74 182.848 197.07 183.792 197.496C184.599 197.862 185.282 198.454 185.76 199.2C186.564 200.604 186.096 201.6 186 201.6Z" fill="#FF9A6A"/>
<path d="M187.2 200.7C187.012 199.692 186.959 198.662 187.044 197.64C187.143 196.596 187.074 195.543 186.84 194.52C186.444 193.548 185.004 193.32 183.6 193.056C177.984 191.856 173.472 190.656 173.52 190.38C173.568 190.104 178.164 190.992 183.78 192.24C184.486 192.375 185.183 192.551 185.868 192.768C186.234 192.877 186.572 193.061 186.862 193.309C187.151 193.557 187.385 193.863 187.548 194.208C187.757 194.821 187.826 195.473 187.752 196.116C187.752 196.644 187.668 197.16 187.632 197.664C187.633 198.691 187.488 199.714 187.2 200.7V200.7Z" fill="#FF9A6A"/>
<path d="M189.6 193.128C189.492 193.2 188.892 192.228 188.532 190.536C188.346 189.589 188.01 188.678 187.536 187.836C187.24 187.367 186.829 186.982 186.341 186.717C185.854 186.452 185.307 186.317 184.752 186.324C179.58 186.204 175.332 186.024 175.332 185.784C175.332 185.544 179.556 185.364 184.836 185.496C185.526 185.538 186.2 185.722 186.816 186.036C187.392 186.374 187.869 186.858 188.196 187.44C188.681 188.368 188.99 189.377 189.108 190.416C189.264 192.12 189.6 193.068 189.6 193.128Z" fill="#FF9A6A"/>
<path d="M140.088 216.072C138.572 217.048 136.988 217.914 135.348 218.664L123.804 224.664C119.436 227.064 115.488 229.14 112.356 230.844C110.816 231.76 109.212 232.562 107.556 233.244C108.975 232.132 110.484 231.141 112.068 230.28C114.924 228.552 118.932 226.26 123.432 223.884C127.932 221.508 132.072 219.48 135.108 218.088C136.706 217.273 138.372 216.598 140.088 216.072V216.072Z" fill="#FF9A6A"/>
</svg>
